<svg width="130" height="130" viewBox="0 0 130 130" fill="none" xmlns="http://www.w3.org/2000/svg">
<path d="M63.2824 129.187C44.5075 127.829 26.6624 119.074 15.0175 105.483C6.57655 95.6437 1.65375 84.2464 0.195641 71.217C-0.0652137 68.8961 -0.0652137 59.8598 0.195641 57.5121C1.40627 46.3556 5.41942 35.7809 11.8271 26.8048C22.2479 12.1903 37.4109 3.00017 55.0153 0.598965C61.9982 -0.350814 69.8037 -0.163533 76.4856 1.1073C88.6655 3.44161 99.2001 8.87274 107.106 16.9057C113.38 23.2866 117.018 29.9351 118.329 37.4531C118.891 40.7305 118.891 45.4058 118.316 48.7768C117.246 55.024 114.062 60.9434 109.226 65.6856C104.564 70.2472 97.5814 73.5647 91.0601 74.3138C89.214 74.5145 85.1139 74.4878 83.3147 74.2403C77.402 73.4644 72.0578 70.6886 68.7135 66.6822C65.8441 63.2509 64.5866 59.7729 64.5866 55.2982C64.5866 49.5527 67.1417 44.5898 71.5963 41.62C74.0644 39.9747 76.3452 39.3392 79.6627 39.3526C82.0572 39.366 83.4284 39.6269 84.9266 40.376C85.95 40.8843 86.0102 41.2254 85.3012 42.7103C84.5788 44.1952 84.4049 45.1182 84.5922 46.2619C85.241 50.0744 89.107 52.7699 92.7188 51.9339C94.712 51.4723 96.7587 49.8136 97.6684 47.9073C98.5513 46.0145 98.7185 44.3423 98.2035 42.3692C97.5681 39.9613 96.344 37.9681 94.1636 35.7876C92.0299 33.6406 89.4615 31.9617 86.4583 30.7377C77.83 27.2329 67.5564 27.8215 58.6672 32.3363C51.9318 35.7542 46.7214 41.1251 43.3571 48.1214C41.1632 52.683 40.1131 57.0506 39.9526 62.1874C39.8389 65.8662 40.1399 68.5082 41.0629 72.1468C43.123 80.2533 48.6411 88.0054 56.1992 93.4165C58.4331 95.015 59.7508 95.7842 62.4597 97.1219C70.9007 101.262 81.1275 103.055 91.2005 102.145C103.608 101.021 116.249 95.8845 126.409 87.8181C127.821 86.6944 128.229 86.4336 128.63 86.4336H129.118L129.031 87.2295C128.871 88.7478 126.289 94.5134 124.316 97.764C123.266 99.4964 121.6 101.851 120.162 103.663C117.607 106.867 112.631 111.616 109.4 113.91C108.604 114.485 108.243 114.633 106.41 115.081C94.2438 118.084 79.656 117.863 66.921 114.492C56.0988 111.636 47.397 107.048 39.8389 100.205L38.1065 98.6335L38.9025 99.6435C45.8452 108.519 54.8748 114.633 66.8206 118.519C74.5125 121.014 83.9769 122.518 92.1837 122.518H94.1636V123.007C94.1636 123.468 94.1234 123.515 93.0533 124.03C87.3947 126.746 80.559 128.545 73.6029 129.14C72.0444 129.287 64.9144 129.314 63.2891 129.2L63.2824 129.187Z" fill="#00CCFF"/>
</svg>
