<svg width="411" height="130" viewBox="0 0 411 130" fill="none" xmlns="http://www.w3.org/2000/svg">
<path d="M63.2824 129.187C44.5075 127.829 26.6624 119.074 15.0175 105.483C6.57655 95.6437 1.65375 84.2464 0.195641 71.217C-0.0652137 68.8961 -0.0652137 59.8598 0.195641 57.5121C1.40627 46.3556 5.41942 35.7809 11.8271 26.8048C22.2479 12.1903 37.4109 3.00017 55.0153 0.598965C61.9982 -0.350814 69.8037 -0.163533 76.4856 1.1073C88.6655 3.44161 99.2001 8.87274 107.106 16.9057C113.38 23.2866 117.018 29.9351 118.329 37.4531C118.891 40.7305 118.891 45.4058 118.316 48.7768C117.246 55.024 114.062 60.9434 109.226 65.6856C104.564 70.2472 97.5814 73.5647 91.0601 74.3138C89.214 74.5145 85.1139 74.4878 83.3147 74.2403C77.402 73.4644 72.0578 70.6886 68.7135 66.6822C65.8441 63.2509 64.5866 59.7729 64.5866 55.2982C64.5866 49.5527 67.1417 44.5898 71.5963 41.62C74.0644 39.9747 76.3452 39.3392 79.6627 39.3526C82.0572 39.366 83.4284 39.6269 84.9266 40.376C85.95 40.8843 86.0102 41.2254 85.3012 42.7103C84.5788 44.1952 84.4049 45.1182 84.5922 46.2619C85.241 50.0744 89.107 52.7699 92.7188 51.9339C94.712 51.4723 96.7587 49.8136 97.6684 47.9073C98.5513 46.0145 98.7185 44.3423 98.2035 42.3692C97.5681 39.9613 96.344 37.9681 94.1636 35.7876C92.0299 33.6406 89.4615 31.9617 86.4583 30.7377C77.83 27.2329 67.5564 27.8215 58.6672 32.3363C51.9318 35.7542 46.7214 41.1251 43.3571 48.1214C41.1632 52.683 40.1131 57.0506 39.9526 62.1874C39.8389 65.8662 40.1399 68.5082 41.0629 72.1468C43.123 80.2533 48.6411 88.0054 56.1992 93.4165C58.4331 95.015 59.7508 95.7842 62.4597 97.1219C70.9007 101.262 81.1275 103.055 91.2005 102.145C103.608 101.021 116.249 95.8845 126.409 87.8181C127.821 86.6944 128.229 86.4336 128.63 86.4336H129.118L129.031 87.2295C128.871 88.7478 126.289 94.5134 124.316 97.764C123.266 99.4964 121.6 101.851 120.162 103.663C117.607 106.867 112.631 111.616 109.4 113.91C108.604 114.485 108.243 114.633 106.41 115.081C94.2438 118.084 79.656 117.863 66.921 114.492C56.0988 111.636 47.397 107.048 39.8389 100.205L38.1065 98.6335L38.9025 99.6435C45.8452 108.519 54.8748 114.633 66.8206 118.519C74.5125 121.014 83.9769 122.518 92.1837 122.518H94.1636V123.007C94.1636 123.468 94.1234 123.515 93.0533 124.03C87.3947 126.746 80.559 128.545 73.6029 129.14C72.0444 129.287 64.9144 129.314 63.2891 129.2L63.2824 129.187Z" fill="#00CCFF"/>
<path d="M303.27 84.5352C303.27 86.957 302.801 89.2422 301.863 91.3906C300.965 93.5391 299.715 95.4141 298.113 97.0156C296.512 98.6172 294.637 99.8867 292.488 100.824C290.34 101.723 288.055 102.172 285.633 102.172H280.828C278.406 102.172 276.121 101.723 273.973 100.824C271.824 99.8867 269.949 98.6172 268.348 97.0156C266.746 95.4141 265.477 93.5391 264.539 91.3906C263.641 89.2422 263.191 86.957 263.191 84.5352V16.9766H270.398V46.0391C272.039 44.0859 274.012 42.5625 276.316 41.4688C278.621 40.375 281.121 39.8281 283.816 39.8281H285.633C288.055 39.8281 290.34 40.2969 292.488 41.2344C294.637 42.1328 296.512 43.3828 298.113 44.9844C299.715 46.5859 300.965 48.4609 301.863 50.6094C302.801 52.7578 303.27 55.043 303.27 57.4648V84.5352ZM296.062 57.0547C296.062 55.6094 295.789 54.2617 295.242 53.0117C294.695 51.7227 293.953 50.6094 293.016 49.6719C292.078 48.7344 290.965 47.9922 289.676 47.4453C288.426 46.8984 287.078 46.625 285.633 46.625H280.828C279.383 46.625 278.016 46.8984 276.727 47.4453C275.477 47.9922 274.383 48.7344 273.445 49.6719C272.508 50.6094 271.766 51.7227 271.219 53.0117C270.672 54.2617 270.398 55.6094 270.398 57.0547V84.9453C270.398 86.3906 270.672 87.7578 271.219 89.0469C271.766 90.2969 272.508 91.3906 273.445 92.3281C274.383 93.2656 275.477 94.0078 276.727 94.5547C278.016 95.1016 279.383 95.375 280.828 95.375H285.633C287.078 95.375 288.426 95.1016 289.676 94.5547C290.965 94.0078 292.078 93.2656 293.016 92.3281C293.953 91.3906 294.695 90.2969 295.242 89.0469C295.789 87.7578 296.062 86.3906 296.062 84.9453V57.0547Z" fill="white"/>
<path d="M248.777 84.5352C248.777 86.957 248.309 89.2422 247.371 91.3906C246.473 93.5391 245.223 95.4141 243.621 97.0156C242.02 98.6172 240.145 99.8867 237.996 100.824C235.848 101.723 233.562 102.172 231.141 102.172H226.336C223.914 102.172 221.629 101.723 219.48 100.824C217.332 99.8867 215.457 98.6172 213.855 97.0156C212.254 95.4141 210.984 93.5391 210.047 91.3906C209.148 89.2422 208.699 86.957 208.699 84.5352V16.9766H215.906V46.0391C217.547 44.0859 219.52 42.5625 221.824 41.4688C224.129 40.375 226.629 39.8281 229.324 39.8281H231.141C233.562 39.8281 235.848 40.2969 237.996 41.2344C240.145 42.1328 242.02 43.3828 243.621 44.9844C245.223 46.5859 246.473 48.4609 247.371 50.6094C248.309 52.7578 248.777 55.043 248.777 57.4648V84.5352ZM241.57 57.0547C241.57 55.6094 241.297 54.2617 240.75 53.0117C240.203 51.7227 239.461 50.6094 238.523 49.6719C237.586 48.7344 236.473 47.9922 235.184 47.4453C233.934 46.8984 232.586 46.625 231.141 46.625H226.336C224.891 46.625 223.523 46.8984 222.234 47.4453C220.984 47.9922 219.891 48.7344 218.953 49.6719C218.016 50.6094 217.273 51.7227 216.727 53.0117C216.18 54.2617 215.906 55.6094 215.906 57.0547V84.9453C215.906 86.3906 216.18 87.7578 216.727 89.0469C217.273 90.2969 218.016 91.3906 218.953 92.3281C219.891 93.2656 220.984 94.0078 222.234 94.5547C223.523 95.1016 224.891 95.375 226.336 95.375H231.141C232.586 95.375 233.934 95.1016 235.184 94.5547C236.473 94.0078 237.586 93.2656 238.523 92.3281C239.461 91.3906 240.203 90.2969 240.75 89.0469C241.297 87.7578 241.57 86.3906 241.57 84.9453V57.0547Z" fill="white"/>
<path d="M194.285 84.5352C194.285 86.957 193.816 89.2422 192.879 91.3906C191.98 93.5391 190.73 95.4141 189.129 97.0156C187.527 98.6172 185.652 99.8867 183.504 100.824C181.355 101.723 179.07 102.172 176.648 102.172H171.844C169.422 102.172 167.137 101.723 164.988 100.824C162.84 99.8867 160.965 98.6172 159.363 97.0156C157.762 95.4141 156.492 93.5391 155.555 91.3906C154.656 89.2422 154.207 86.957 154.207 84.5352V57.4648C154.207 55.043 154.656 52.7578 155.555 50.6094C156.492 48.4609 157.762 46.5859 159.363 44.9844C160.965 43.3828 162.84 42.1328 164.988 41.2344C167.137 40.2969 169.422 39.8281 171.844 39.8281H176.648C179.07 39.8281 181.355 40.2969 183.504 41.2344C185.652 42.1328 187.527 43.3828 189.129 44.9844C190.73 46.5859 191.98 48.4609 192.879 50.6094C193.816 52.7578 194.285 55.043 194.285 57.4648V71.5859H161.414V84.9453C161.414 86.3906 161.688 87.7578 162.234 89.0469C162.781 90.2969 163.523 91.3906 164.461 92.3281C165.398 93.2656 166.492 94.0078 167.742 94.5547C169.031 95.1016 170.398 95.375 171.844 95.375H176.648C178.094 95.375 179.441 95.1016 180.691 94.5547C181.98 94.0078 183.094 93.2656 184.031 92.3281C184.969 91.3906 185.711 90.2969 186.258 89.0469C186.805 87.7578 187.078 86.3906 187.078 84.9453V80.9609L194.285 82.1328V84.5352ZM187.078 57.0547C187.078 55.6094 186.805 54.2617 186.258 53.0117C185.711 51.7227 184.969 50.6094 184.031 49.6719C183.094 48.7344 181.98 47.9922 180.691 47.4453C179.441 46.8984 178.094 46.625 176.648 46.625H171.844C170.398 46.625 169.031 46.8984 167.742 47.4453C166.492 47.9922 165.398 48.7344 164.461 49.6719C163.523 50.6094 162.781 51.7227 162.234 53.0117C161.688 54.2617 161.414 55.6094 161.414 57.0547V65.9609H187.078V57.0547Z" fill="white"/>
<path d="M285.633 93.375V95.375H280.828V93.375H285.633ZM294.062 57.0547C294.062 56.0171 293.892 55.0661 293.562 54.1865L293.41 53.8135L293.405 53.8027L293.401 53.793C293.006 52.8602 292.495 52.0585 291.874 51.373L291.602 51.0859C290.856 50.3402 289.961 49.7384 288.895 49.2861L288.885 49.2822L288.874 49.2773C287.892 48.8476 286.819 48.625 285.633 48.625H280.828C279.646 48.625 278.549 48.8455 277.518 49.2812C276.494 49.7306 275.613 50.3324 274.859 51.0859C274.114 51.8317 273.512 52.7269 273.06 53.793L273.056 53.8027L273.051 53.8135C272.621 54.7958 272.398 55.8687 272.398 57.0547V84.9453C272.398 86.1268 272.619 87.2241 273.055 88.2549C273.448 89.1506 273.957 89.9367 274.583 90.624L274.859 90.9141C275.613 91.6675 276.494 92.2684 277.518 92.7178C278.549 93.1537 279.646 93.375 280.828 93.375V95.375C279.383 95.375 278.016 95.1016 276.727 94.5547C275.477 94.0078 274.383 93.2656 273.445 92.3281C272.508 91.3906 271.766 90.2969 271.219 89.0469C270.672 87.7578 270.398 86.3906 270.398 84.9453V57.0547C270.398 55.6094 270.672 54.2617 271.219 53.0117C271.766 51.7227 272.508 50.6094 273.445 49.6719C274.383 48.7344 275.477 47.9922 276.727 47.4453C278.016 46.8984 279.383 46.625 280.828 46.625H285.633C287.078 46.625 288.426 46.8984 289.676 47.4453C290.965 47.9922 292.078 48.7344 293.016 49.6719C293.953 50.6094 294.695 51.7227 295.242 53.0117C295.789 54.2617 296.062 55.6094 296.062 57.0547V84.9453C296.062 86.3906 295.789 87.7578 295.242 89.0469C294.695 90.2969 293.953 91.3906 293.016 92.3281C292.078 93.2656 290.965 94.0078 289.676 94.5547C288.426 95.1016 287.078 95.375 285.633 95.375V93.375C286.819 93.375 287.892 93.1524 288.874 92.7227L288.885 92.7178L288.895 92.7139C289.961 92.2616 290.856 91.6598 291.602 90.9141C292.355 90.1605 292.956 89.279 293.405 88.2549C293.841 87.224 294.062 86.127 294.062 84.9453V57.0547ZM270.398 16.9766H263.191V84.5352C263.191 86.957 263.641 89.2422 264.539 91.3906C265.477 93.5391 266.746 95.4141 268.348 97.0156C269.949 98.6172 271.824 99.8867 273.973 100.824C276.121 101.723 278.406 102.172 280.828 102.172H285.633C288.055 102.172 290.34 101.723 292.488 100.824C294.637 99.8867 296.512 98.6172 298.113 97.0156C299.715 95.4141 300.965 93.5391 301.863 91.3906C302.801 89.2422 303.27 86.957 303.27 84.5352V57.4648C303.27 55.043 302.801 52.7578 301.863 50.6094C300.965 48.4609 299.715 46.5859 298.113 44.9844C296.512 43.3828 294.637 42.1328 292.488 41.2344C290.34 40.2969 288.055 39.8281 285.633 39.8281V37.8281C288.321 37.8281 290.879 38.3501 293.288 39.4014H293.287C295.509 40.3342 297.481 41.6134 299.188 43.2393L299.527 43.5703C301.311 45.354 302.7 47.4397 303.695 49.8096H303.696C304.748 52.2187 305.27 54.7771 305.27 57.4648V84.5352C305.27 87.2229 304.748 89.7813 303.696 92.1904L303.695 92.1895C302.7 94.5597 301.311 96.6458 299.527 98.4297C297.743 100.214 295.658 101.623 293.288 102.657L293.274 102.663L293.26 102.669C290.857 103.674 288.309 104.172 285.633 104.172H280.828C278.319 104.172 275.923 103.734 273.653 102.852L273.201 102.669L273.187 102.663L273.173 102.657C270.951 101.688 268.98 100.389 267.271 98.7598L266.934 98.4297C265.261 96.7568 263.918 94.8197 262.904 92.6318L262.706 92.1904L262.7 92.1768L262.694 92.1621C261.69 89.7595 261.191 87.2111 261.191 84.5352V14.9766H272.398V41.4678C273.353 40.78 274.373 40.1773 275.459 39.6621C278.047 38.434 280.842 37.8281 283.816 37.8281V39.8281C281.121 39.8281 278.621 40.375 276.316 41.4688C274.012 42.5625 272.039 44.0859 270.398 46.0391V16.9766ZM285.633 37.8281V39.8281H283.816V37.8281H285.633Z" fill="white"/>
<path d="M231.141 93.375V95.375H226.336V93.375H231.141ZM239.57 57.0547C239.57 56.0171 239.4 55.0661 239.069 54.1865L238.918 53.8135L238.913 53.8027L238.909 53.793C238.513 52.8602 238.003 52.0585 237.382 51.373L237.109 51.0859C236.364 50.3402 235.468 49.7384 234.402 49.2861L234.393 49.2822L234.382 49.2773C233.399 48.8476 232.327 48.625 231.141 48.625H226.336C225.154 48.625 224.056 48.8455 223.025 49.2812C222.001 49.7306 221.121 50.3324 220.367 51.0859C219.621 51.8317 219.02 52.7269 218.567 53.793L218.563 53.8027L218.559 53.8135C218.129 54.7958 217.906 55.8687 217.906 57.0547V84.9453C217.906 86.1268 218.127 87.2241 218.562 88.2549C218.956 89.1506 219.465 89.9367 220.091 90.624L220.367 90.9141C221.121 91.6675 222.002 92.2684 223.025 92.7178C224.056 93.1537 225.154 93.375 226.336 93.375V95.375C224.891 95.375 223.523 95.1016 222.234 94.5547C220.984 94.0078 219.891 93.2656 218.953 92.3281C218.016 91.3906 217.273 90.2969 216.727 89.0469C216.18 87.7578 215.906 86.3906 215.906 84.9453V57.0547C215.906 55.6094 216.18 54.2617 216.727 53.0117C217.273 51.7227 218.016 50.6094 218.953 49.6719C219.891 48.7344 220.984 47.9922 222.234 47.4453C223.523 46.8984 224.891 46.625 226.336 46.625H231.141C232.586 46.625 233.934 46.8984 235.184 47.4453C236.473 47.9922 237.586 48.7344 238.523 49.6719C239.461 50.6094 240.203 51.7227 240.75 53.0117C241.297 54.2617 241.57 55.6094 241.57 57.0547V84.9453C241.57 86.3906 241.297 87.7578 240.75 89.0469C240.203 90.2969 239.461 91.3906 238.523 92.3281C237.586 93.2656 236.473 94.0078 235.184 94.5547C233.934 95.1016 232.586 95.375 231.141 95.375V93.375C232.327 93.375 233.399 93.1524 234.382 92.7227L234.393 92.7178L234.402 92.7139C235.468 92.2616 236.364 91.6598 237.109 90.9141C237.863 90.1605 238.464 89.279 238.913 88.2549C239.349 87.224 239.57 86.127 239.57 84.9453V57.0547ZM215.906 16.9766H208.699V84.5352C208.699 86.957 209.148 89.2422 210.047 91.3906C210.984 93.5391 212.254 95.4141 213.855 97.0156C215.457 98.6172 217.332 99.8867 219.48 100.824C221.629 101.723 223.914 102.172 226.336 102.172H231.141C233.562 102.172 235.848 101.723 237.996 100.824C240.145 99.8867 242.02 98.6172 243.621 97.0156C245.223 95.4141 246.473 93.5391 247.371 91.3906C248.309 89.2422 248.777 86.957 248.777 84.5352V57.4648C248.777 55.043 248.309 52.7578 247.371 50.6094C246.473 48.4609 245.223 46.5859 243.621 44.9844C242.02 43.3828 240.145 42.1328 237.996 41.2344C235.848 40.2969 233.562 39.8281 231.141 39.8281V37.8281C233.828 37.8281 236.387 38.3501 238.796 39.4014H238.795C241.017 40.3342 242.989 41.6134 244.696 43.2393L245.035 43.5703C246.819 45.354 248.208 47.4397 249.203 49.8096H249.204C250.255 52.2187 250.777 54.7771 250.777 57.4648V84.5352C250.777 87.2229 250.255 89.7813 249.204 92.1904L249.203 92.1895C248.208 94.5597 246.819 96.6458 245.035 98.4297C243.251 100.214 241.165 101.623 238.796 102.657L238.782 102.663L238.768 102.669C236.365 103.674 233.817 104.172 231.141 104.172H226.336C223.827 104.172 221.431 103.734 219.161 102.852L218.709 102.669L218.694 102.663L218.681 102.657C216.459 101.688 214.488 100.389 212.779 98.7598L212.441 98.4297C210.768 96.7568 209.425 94.8197 208.412 92.6318L208.214 92.1904L208.208 92.1768L208.202 92.1621C207.197 89.7595 206.699 87.2111 206.699 84.5352V14.9766H217.906V41.4678C218.861 40.78 219.881 40.1773 220.967 39.6621C223.555 38.434 226.349 37.8281 229.324 37.8281V39.8281C226.629 39.8281 224.129 40.375 221.824 41.4688C219.52 42.5625 217.547 44.0859 215.906 46.0391V16.9766ZM231.141 37.8281V39.8281H229.324V37.8281H231.141Z" fill="white"/>
<path d="M152.207 57.4648C152.207 54.7889 152.705 52.2405 153.71 49.8379L153.716 49.8232L153.722 49.8096C154.756 47.4401 156.165 45.3548 157.949 43.5703C159.733 41.7865 161.818 40.3966 164.188 39.4014L164.642 39.21C166.918 38.2864 169.324 37.8281 171.844 37.8281V39.8281C169.422 39.8281 167.137 40.2969 164.988 41.2344C162.84 42.1328 160.965 43.3828 159.363 44.9844C157.762 46.5859 156.492 48.4609 155.555 50.6094C154.656 52.7578 154.207 55.043 154.207 57.4648V84.5352C154.207 86.957 154.656 89.2422 155.555 91.3906C156.492 93.5391 157.762 95.4141 159.363 97.0156C160.965 98.6172 162.84 99.8867 164.988 100.824C167.137 101.723 169.422 102.172 171.844 102.172H176.648C179.07 102.172 181.355 101.723 183.504 100.824C185.652 99.8867 187.527 98.6172 189.129 97.0156C190.73 95.4141 191.98 93.5391 192.879 91.3906C193.816 89.2422 194.285 86.957 194.285 84.5352V82.1328L187.078 80.9609V84.9453C187.078 86.3906 186.805 87.7578 186.258 89.0469C185.711 90.2969 184.969 91.3906 184.031 92.3281C183.094 93.2656 181.98 94.0078 180.691 94.5547C179.441 95.1016 178.094 95.375 176.648 95.375V93.375C177.834 93.375 178.907 93.1524 179.89 92.7227L179.9 92.7178L179.91 92.7139C180.976 92.2616 181.871 91.6598 182.617 90.9141C183.371 90.1605 183.971 89.279 184.421 88.2549C184.857 87.224 185.078 86.127 185.078 84.9453V78.6094L196.285 80.4316V84.5352C196.285 87.2229 195.763 89.7813 194.712 92.1904L194.711 92.1895C193.716 94.5597 192.327 96.6458 190.543 98.4297C188.758 100.214 186.673 101.623 184.304 102.657L184.29 102.663L184.275 102.669C181.873 103.674 179.324 104.172 176.648 104.172H171.844C169.335 104.172 166.938 103.734 164.669 102.852L164.217 102.669L164.202 102.663L164.188 102.657C161.967 101.688 159.995 100.389 158.287 98.7598L157.949 98.4297C156.276 96.7568 154.933 94.8197 153.92 92.6318L153.722 92.1904L153.716 92.1768L153.71 92.1621C152.705 89.7595 152.207 87.2111 152.207 84.5352V57.4648ZM176.648 93.375V95.375H171.844V93.375H176.648ZM161.414 84.9453V71.5859H194.285V57.4648C194.285 55.043 193.816 52.7578 192.879 50.6094C191.98 48.4609 190.73 46.5859 189.129 44.9844C187.527 43.3828 185.652 42.1328 183.504 41.2344C181.355 40.2969 179.07 39.8281 176.648 39.8281V37.8281C179.336 37.8281 181.895 38.3501 184.304 39.4014C186.525 40.3342 188.497 41.6134 190.204 43.2393L190.543 43.5703C192.327 45.354 193.716 47.4397 194.711 49.8096C195.762 52.2187 196.285 54.7771 196.285 57.4648V73.5859H163.414V84.9453C163.414 86.1268 163.635 87.2241 164.07 88.2549C164.463 89.1506 164.973 89.9367 165.599 90.624L165.875 90.9141C166.628 91.6675 167.509 92.2684 168.533 92.7178C169.564 93.1537 170.662 93.375 171.844 93.375V95.375C170.398 95.375 169.031 95.1016 167.742 94.5547C166.492 94.0078 165.398 93.2656 164.461 92.3281C163.523 91.3906 162.781 90.2969 162.234 89.0469C161.688 87.7578 161.414 86.3906 161.414 84.9453ZM185.078 57.0547C185.078 56.0171 184.908 55.0661 184.577 54.1865L184.426 53.8135L184.421 53.8027L184.417 53.793C184.021 52.8602 183.511 52.0585 182.89 51.373L182.617 51.0859C181.871 50.3402 180.976 49.7384 179.91 49.2861L179.9 49.2822L179.89 49.2773C178.907 48.8476 177.834 48.625 176.648 48.625H171.844C170.662 48.625 169.564 48.8455 168.533 49.2812C167.509 49.7306 166.628 50.3324 165.875 51.0859C165.129 51.8317 164.527 52.7269 164.075 53.793L164.071 53.8027L164.066 53.8135C163.637 54.7958 163.414 55.8687 163.414 57.0547V63.9609H185.078V57.0547ZM176.648 37.8281V39.8281H171.844V37.8281H176.648ZM187.078 65.9609H161.414V57.0547C161.414 55.6094 161.688 54.2617 162.234 53.0117C162.781 51.7227 163.523 50.6094 164.461 49.6719C165.398 48.7344 166.492 47.9922 167.742 47.4453C169.031 46.8984 170.398 46.625 171.844 46.625H176.648C178.094 46.625 179.441 46.8984 180.691 47.4453C181.98 47.9922 183.094 48.7344 184.031 49.6719C184.969 50.6094 185.711 51.7227 186.258 53.0117C186.805 54.2617 187.078 55.6094 187.078 57.0547V65.9609Z" fill="white"/>
<path d="M410.551 86.5352C410.551 88.957 410.082 91.2422 409.145 93.3906C408.246 95.5391 406.996 97.4141 405.395 99.0156C403.793 100.617 401.918 101.887 399.77 102.824C397.621 103.723 395.336 104.172 392.914 104.172H388.109C385.688 104.172 383.402 103.723 381.254 102.824C379.105 101.887 377.23 100.617 375.629 99.0156C374.027 97.4141 372.758 95.5391 371.82 93.3906C370.922 91.2422 370.473 88.957 370.473 86.5352V59.4648C370.473 57.043 370.922 54.7578 371.82 52.6094C372.758 50.4609 374.027 48.5859 375.629 46.9844C377.23 45.3828 379.105 44.1328 381.254 43.2344C383.402 42.2969 385.688 41.8281 388.109 41.8281H392.914C395.336 41.8281 397.621 42.2969 399.77 43.2344C401.918 44.1328 403.793 45.3828 405.395 46.9844C406.996 48.5859 408.246 50.4609 409.145 52.6094C410.082 54.7578 410.551 57.043 410.551 59.4648V86.5352ZM403.344 59.0547C403.344 57.6094 403.07 56.2617 402.523 55.0117C401.977 53.7227 401.234 52.6094 400.297 51.6719C399.359 50.7344 398.246 49.9922 396.957 49.4453C395.707 48.8984 394.359 48.625 392.914 48.625H388.109C386.664 48.625 385.297 48.8984 384.008 49.4453C382.758 49.9922 381.664 50.7344 380.727 51.6719C379.789 52.6094 379.047 53.7227 378.5 55.0117C377.953 56.2617 377.68 57.6094 377.68 59.0547V86.9453C377.68 88.3906 377.953 89.7578 378.5 91.0469C379.047 92.2969 379.789 93.3906 380.727 94.3281C381.664 95.2656 382.758 96.0078 384.008 96.5547C385.297 97.1016 386.664 97.375 388.109 97.375H392.914C394.359 97.375 395.707 97.1016 396.957 96.5547C398.246 96.0078 399.359 95.2656 400.297 94.3281C401.234 93.3906 401.977 92.2969 402.523 91.0469C403.07 89.7578 403.344 88.3906 403.344 86.9453V59.0547Z" fill="#00CCFF"/>
<path d="M345.805 28.5859V18.9766H354.184V28.5859H345.805ZM346.391 103V43H353.598V103H346.391Z" fill="#00CCFF"/>
<path d="M319.379 103V93.9766H328.402V103H319.379Z" fill="#00CCFF"/>
</svg>
