<svg width="157" height="35" viewBox="0 0 157 35" fill="none" xmlns="http://www.w3.org/2000/svg">
<path d="M17.1539 34.9773C12.0646 34.6097 7.22736 32.2392 4.0708 28.5594C1.7827 25.8955 0.448282 22.8097 0.0530324 19.282C-0.0176775 18.6536 -0.0176775 16.207 0.0530324 15.5714C0.381198 12.5507 1.46904 9.68766 3.20596 7.25739C6.03073 3.30051 10.141 0.812294 14.913 0.16217C16.8058 -0.0949827 18.9217 -0.0442766 20.7329 0.2998C24.0345 0.931815 26.8901 2.40229 29.0332 4.57722C30.7338 6.30485 31.7202 8.10491 32.0755 10.1404C32.2278 11.0278 32.2278 12.2936 32.0719 13.2063C31.7818 14.8977 30.9188 16.5004 29.6079 17.7843C28.3442 19.0194 26.4514 19.9176 24.6836 20.1204C24.1832 20.1748 23.0718 20.1675 22.5841 20.1005C20.9813 19.8904 19.5327 19.1389 18.6261 18.0542C17.8483 17.1252 17.5075 16.1835 17.5075 14.972C17.5075 13.4164 18.2001 12.0727 19.4076 11.2686C20.0766 10.8231 20.6949 10.6511 21.5941 10.6547C22.2432 10.6583 22.6149 10.7289 23.021 10.9318C23.2984 11.0694 23.3147 11.1618 23.1226 11.5638C22.9267 11.9658 22.8796 12.2157 22.9304 12.5254C23.1062 13.5576 24.1542 14.2874 25.1333 14.0611C25.6736 13.9361 26.2284 13.487 26.4749 12.9709C26.7143 12.4584 26.7596 12.0057 26.62 11.4714C26.4477 10.8195 26.1159 10.2798 25.5249 9.68948C24.9465 9.10817 24.2503 8.65362 23.4362 8.32222C21.0974 7.37329 18.3125 7.53266 15.9029 8.75503C14.0771 9.68042 12.6648 11.1346 11.7528 13.0288C11.1581 14.2639 10.8734 15.4464 10.8299 16.8372C10.7991 17.8332 10.8807 18.5485 11.1309 19.5337C11.6893 21.7285 13.1851 23.8274 15.2339 25.2925C15.8395 25.7253 16.1966 25.9335 16.9309 26.2957C19.219 27.4167 21.9912 27.902 24.7217 27.6557C28.0849 27.3515 31.5116 25.9607 34.2657 23.7767C34.6483 23.4725 34.7589 23.4018 34.8676 23.4018H35L34.9764 23.6173C34.9329 24.0284 34.2331 25.5894 33.6982 26.4696C33.4136 26.9386 32.9621 27.576 32.5723 28.0668C31.8797 28.9342 30.5308 30.22 29.6551 30.8411C29.4393 30.9969 29.3414 31.0367 28.8446 31.1581C25.5466 31.9712 21.5923 31.9114 18.1402 30.9987C15.2067 30.2254 12.8479 28.9831 10.7991 27.1305L10.3295 26.705L10.5453 26.9784C12.4272 29.3815 14.8749 31.0367 18.113 32.0889C20.1981 32.7644 22.7636 33.1718 24.9882 33.1718H25.5249V33.304C25.5249 33.429 25.514 33.4416 25.2239 33.5811C23.6901 34.3163 21.8371 34.8035 19.9515 34.9646C19.5291 35.0045 17.5963 35.0117 17.1557 34.9809L17.1539 34.9773Z" fill="#00CCFF"/>
<path d="M155.449 27.0002H154.548C153.382 27.0002 152.446 26.6115 151.739 25.8342C151.033 25.0569 150.679 23.9969 150.679 22.6542V12.9552H149.195C148.842 12.9552 148.665 12.7432 148.665 12.3192V11.9482C148.665 11.4889 148.842 11.2592 149.195 11.2592H150.679V9.1922C150.679 9.01553 150.732 8.85653 150.838 8.7152C150.944 8.53853 151.086 8.4502 151.262 8.4502H151.633C151.81 8.4502 151.934 8.53853 152.004 8.7152C152.11 8.85653 152.163 9.01553 152.163 9.1922V11.2592H155.184C155.573 11.2592 155.767 11.4889 155.767 11.9482V12.3192C155.767 12.5665 155.697 12.7432 155.555 12.8492C155.449 12.9199 155.326 12.9552 155.184 12.9552H152.163V22.6542C152.163 24.4209 152.958 25.3042 154.548 25.3042H155.449C155.838 25.3042 156.032 25.5162 156.032 25.9402V26.3642C156.032 26.6115 155.962 26.7882 155.82 26.8942C155.714 26.9649 155.591 27.0002 155.449 27.0002Z" fill="white"/>
<path d="M139.613 27H139.242C138.889 27 138.712 26.7703 138.712 26.311V15.764C138.712 13.962 137.935 13.061 136.38 13.061H134.472C132.812 13.061 131.981 13.9266 131.981 15.658V26.311C131.981 26.7703 131.787 27 131.398 27H131.027C130.674 27 130.497 26.7703 130.497 26.311V12.054C130.497 11.8773 130.533 11.736 130.603 11.63C130.709 11.4886 130.851 11.418 131.027 11.418H131.398C131.504 11.418 131.593 11.471 131.663 11.577C131.769 11.6476 131.911 11.8243 132.087 12.107C132.9 11.6476 133.695 11.418 134.472 11.418H136.38C137.546 11.418 138.483 11.8066 139.189 12.584C139.896 13.3613 140.249 14.4213 140.249 15.764V26.311C140.249 26.7703 140.037 27 139.613 27Z" fill="white"/>
<path d="M120.7 20.163H112.803V22.601C112.803 24.4383 113.58 25.357 115.135 25.357H120.488C120.912 25.357 121.124 25.569 121.124 25.993V26.364C121.124 26.576 121.053 26.735 120.912 26.841C120.771 26.947 120.629 27 120.488 27H115.135C113.934 27 112.997 26.6113 112.326 25.834C111.655 25.0566 111.319 23.9966 111.319 22.654V15.764C111.319 14.4213 111.655 13.3613 112.326 12.584C112.997 11.8066 113.934 11.418 115.135 11.418H117.414C118.651 11.418 119.605 11.8066 120.276 12.584C120.947 13.3613 121.283 14.4213 121.283 15.764V19.421C121.283 19.9156 121.089 20.163 120.7 20.163ZM119.799 15.764C119.799 13.962 119.004 13.061 117.414 13.061H115.135C113.58 13.061 112.803 13.962 112.803 15.764V18.52H119.799V15.764Z" fill="white"/>
<path d="M102.341 13.061H101.387C100.68 13.061 100.133 13.3436 99.7442 13.909C99.3555 14.439 99.1612 15.1456 99.1612 16.029V26.311C99.1612 26.7703 98.9845 27 98.6312 27H98.3132C98.0305 27 97.8892 26.7703 97.8892 26.311V12.054C97.8892 11.63 98.0305 11.418 98.3132 11.418H98.6312C98.7725 11.418 98.8785 11.4533 98.9492 11.524C99.0198 11.5946 99.1258 11.8066 99.2672 12.16C99.7265 11.9126 100.097 11.736 100.38 11.63C100.698 11.4886 101.051 11.418 101.44 11.418H102.341C102.482 11.418 102.606 11.4886 102.712 11.63C102.818 11.736 102.871 11.8773 102.871 12.054V12.425C102.871 12.849 102.694 13.061 102.341 13.061Z" fill="white"/>
<path d="M89.0704 13.061H88.1164C87.4097 13.061 86.8621 13.3436 86.4734 13.909C86.0847 14.439 85.8904 15.1456 85.8904 16.029V26.311C85.8904 26.7703 85.7137 27 85.3604 27H85.0424C84.7597 27 84.6184 26.7703 84.6184 26.311V12.054C84.6184 11.63 84.7597 11.418 85.0424 11.418H85.3604C85.5017 11.418 85.6077 11.4533 85.6784 11.524C85.7491 11.5946 85.8551 11.8066 85.9964 12.16C86.4557 11.9126 86.8267 11.736 87.1094 11.63C87.4274 11.4886 87.7807 11.418 88.1694 11.418H89.0704C89.2117 11.418 89.3354 11.4886 89.4414 11.63C89.5474 11.736 89.6004 11.8773 89.6004 12.054V12.425C89.6004 12.849 89.4237 13.061 89.0704 13.061Z" fill="white"/>
<path d="M75.4014 27H75.0834C74.8361 27 74.6064 26.7703 74.3944 26.311C73.9351 26.5583 73.5111 26.735 73.1224 26.841C72.7691 26.947 72.3804 27 71.9564 27H70.1014C68.9354 27 67.9991 26.6113 67.2924 25.834C66.5858 25.0566 66.2324 23.9966 66.2324 22.654V12.054C66.2324 11.63 66.4268 11.418 66.8154 11.418H67.2394C67.4161 11.418 67.5574 11.4886 67.6634 11.63C67.7694 11.736 67.8224 11.8773 67.8224 12.054V22.601C67.8224 24.4383 68.5821 25.357 70.1014 25.357H71.9564C73.6524 25.357 74.5004 24.4913 74.5004 22.76V12.054C74.5004 11.63 74.6948 11.418 75.0834 11.418H75.4014C75.5781 11.418 75.7194 11.4886 75.8254 11.63C75.9314 11.736 75.9844 11.8773 75.9844 12.054V26.311C75.9844 26.7703 75.7901 27 75.4014 27Z" fill="white"/>
<path d="M56.904 27H53.406C52.2754 27 51.3744 26.6113 50.703 25.834C50.0317 25.0566 49.696 23.9966 49.696 22.654V15.764C49.696 14.4213 50.0317 13.3613 50.703 12.584C51.3744 11.8066 52.2754 11.418 53.406 11.418H56.904C57.2927 11.418 57.487 11.63 57.487 12.054V12.425C57.487 12.637 57.4164 12.796 57.275 12.902C57.169 13.008 57.0454 13.061 56.904 13.061H53.406C51.922 13.061 51.18 13.962 51.18 15.764V22.601C51.18 24.4383 51.922 25.357 53.406 25.357H56.904C57.2927 25.357 57.487 25.569 57.487 25.993V26.364C57.487 26.6113 57.4164 26.788 57.275 26.894C57.169 26.9646 57.0454 27 56.904 27Z" fill="white"/>
</svg>
