<svg width="35" height="35" viewBox="0 0 35 35" fill="none" xmlns="http://www.w3.org/2000/svg">
<path d="M17.1539 34.9773C12.0646 34.6097 7.22736 32.2392 4.0708 28.5594C1.7827 25.8955 0.448282 22.8097 0.0530324 19.282C-0.0176775 18.6536 -0.0176775 16.207 0.0530324 15.5714C0.381198 12.5507 1.46904 9.68766 3.20596 7.25739C6.03073 3.30051 10.141 0.812294 14.913 0.16217C16.8058 -0.0949826 18.9217 -0.0442765 20.7329 0.2998C24.0345 0.931815 26.8901 2.40229 29.0332 4.57722C30.7338 6.30485 31.7202 8.10491 32.0755 10.1404C32.2278 11.0278 32.2278 12.2936 32.0719 13.2063C31.7818 14.8977 30.9188 16.5004 29.6079 17.7843C28.3442 19.0194 26.4514 19.9176 24.6836 20.1204C24.1832 20.1748 23.0718 20.1675 22.5841 20.1005C20.9813 19.8904 19.5327 19.1389 18.6261 18.0542C17.8483 17.1252 17.5075 16.1835 17.5075 14.972C17.5075 13.4164 18.2001 12.0727 19.4076 11.2686C20.0766 10.8231 20.6949 10.6511 21.5941 10.6547C22.2432 10.6583 22.6149 10.7289 23.021 10.9318C23.2984 11.0694 23.3147 11.1618 23.1226 11.5638C22.9267 11.9658 22.8796 12.2157 22.9304 12.5254C23.1062 13.5576 24.1542 14.2874 25.1333 14.0611C25.6736 13.9361 26.2284 13.487 26.4749 12.9709C26.7143 12.4584 26.7596 12.0057 26.62 11.4714C26.4477 10.8195 26.1159 10.2798 25.5249 9.68948C24.9465 9.10817 24.2503 8.65362 23.4362 8.32222C21.0974 7.37329 18.3125 7.53266 15.9029 8.75503C14.0771 9.68042 12.6648 11.1346 11.7528 13.0288C11.1581 14.2639 10.8734 15.4464 10.8299 16.8372C10.7991 17.8332 10.8807 18.5485 11.1309 19.5337C11.6893 21.7285 13.1851 23.8274 15.2339 25.2925C15.8395 25.7253 16.1966 25.9335 16.9309 26.2957C19.219 27.4167 21.9912 27.902 24.7217 27.6557C28.0849 27.3515 31.5116 25.9607 34.2657 23.7767C34.6483 23.4725 34.7589 23.4018 34.8676 23.4018H35L34.9764 23.6173C34.9329 24.0284 34.2331 25.5894 33.6982 26.4696C33.4136 26.9386 32.9621 27.576 32.5723 28.0668C31.8797 28.9342 30.5308 30.22 29.6551 30.8411C29.4393 30.9969 29.3414 31.0367 28.8446 31.1581C25.5466 31.9712 21.5923 31.9114 18.1402 30.9987C15.2067 30.2254 12.8479 28.9831 10.7991 27.1305L10.3295 26.705L10.5453 26.9784C12.4272 29.3815 14.8749 31.0367 18.113 32.0889C20.1981 32.7644 22.7636 33.1718 24.9882 33.1718H25.5249V33.304C25.5249 33.429 25.514 33.4416 25.2239 33.5811C23.6901 34.3163 21.8371 34.8035 19.9515 34.9646C19.5291 35.0045 17.5963 35.0117 17.1557 34.9809L17.1539 34.9773Z" fill="#00CCFF"/>
</svg>
